<svg width="503" height="663" viewBox="0 0 503 663" fill="none" xmlns="http://www.w3.org/2000/svg">
<path d="M645 48.7751V662.999H-111.876V53.5283C-111.876 53.5283 -99.0005 29.3463 -81.4205 13.5184C-68.2073 1.59541 -52.3429 -5.61435 -37.2842 5.66044C-2.55741 31.6749 -36.5651 95.4106 -37.2842 96.731C-36.5044 95.7627 -8.36254 60.562 15.9843 86.8805C40.5305 113.399 -3.20723 201.533 -3.73576 202.613C-3.17258 202.101 24.1375 177.423 43.9962 203.565C63.6037 229.364 35.5485 277.872 34.2315 280.128C35.5658 278.328 59.2369 247.064 83.5664 269.998C94.7001 280.488 97.7846 295.028 97.7846 307.935C97.6916 317.963 96.0758 327.929 92.9846 337.543C95.231 331.884 98.0964 326.452 101.536 321.331C109.88 308.839 124.48 294.332 145.985 298.061C182.349 304.398 185.927 354.811 185.927 354.811C185.927 354.811 192.053 301.294 236.579 304.878C281.105 308.463 287.508 364.413 287.508 364.413C287.508 364.413 286.815 300.661 326.091 302.326C363.114 303.926 376.396 351.634 377.808 357.107C376.491 351.202 365.202 295.492 402.666 274.167C432.61 257.091 461.463 281.945 473.758 295.076C461.108 279.376 435.114 242.055 455.259 221.562C480.854 195.555 525.354 230.1 526.706 231.164C525.103 229.524 460.856 163.483 494.249 125.538C527.641 87.5927 579.809 151.272 581.291 153.105C579.844 150.648 515.624 41.2292 567.021 15.1188C576.162 10.4696 584.505 8.50913 592.043 8.4211C627.351 7.989 645 48.7751 645 48.7751Z" fill="#00A197"/>
<path d="M645 209.856V663H-111.876V213.361C-111.876 213.361 -72.3749 158.635 -37.2842 178.032C-2.47076 197.237 -36.7297 244.448 -37.2842 245.249C-36.643 244.648 -8.41452 218.506 15.9843 237.967C40.5132 257.524 -3.16391 322.492 -3.73576 323.348C-3.17258 322.972 24.1375 304.759 43.9962 324.052C63.6903 343.169 35.3319 379.186 34.2142 380.554C35.3059 379.458 59.1069 356.052 83.6011 373.056C107.532 389.692 94.2842 420.14 93.0712 422.804C94.4748 420.1 111.188 389.332 145.985 393.781C182.375 398.438 185.953 435.632 185.953 435.632C185.953 435.632 192.079 396.15 236.605 398.823C281.131 401.495 287.534 442.745 287.534 442.745C287.534 442.745 286.841 395.71 326.117 396.942C362.94 398.094 376.283 432.951 377.808 437.288C376.405 432.567 365.427 391.845 402.692 376.169C432.636 363.574 461.48 381.898 473.74 391.589C461.108 379.97 435.114 352.411 455.259 337.327C480.854 318.123 525.354 343.625 526.706 344.401C525.103 343.193 460.856 294.469 494.249 266.486C527.641 238.503 580.026 285.691 581.291 286.827C580 285.226 515.563 204.31 567.021 185.026C619.007 165.541 645 209.856 645 209.856Z" fill="#44B69E"/>
<g opacity="0.19">
<path opacity="0.19" d="M495.062 403.359C493.439 406.116 492.627 409.217 492.705 412.353C492.705 415.202 493.216 418.163 495.019 420.475C497.098 423.14 500.624 424.58 504.151 425.061C506.836 425.443 509.578 425.295 512.196 424.626C514.814 423.957 517.249 422.782 519.339 421.18C521.402 419.544 522.989 417.458 523.954 415.112C524.92 412.765 525.234 410.232 524.867 407.744C524.43 405.265 523.23 402.955 521.409 401.089C519.588 399.223 517.224 397.88 514.6 397.222C508.171 395.805 498.545 397.838 495.062 403.359Z" fill="#00684E"/>
<path opacity="0.19" d="M-27.4767 453.972C-29.728 457.807 -30.8569 462.118 -30.7518 466.479C-30.7518 470.432 -30.0413 474.553 -27.5373 477.77C-24.6434 481.474 -19.7394 483.475 -14.844 484.171C-11.1103 484.705 -7.29627 484.501 -3.65459 483.571C-0.0129115 482.641 3.37328 481.007 6.27967 478.778C11.9808 474.233 15.1606 466.975 13.965 460.101C12.7693 453.227 7.03347 447.098 -0.305244 445.482C-9.23821 443.473 -22.6247 446.298 -27.4767 453.972Z" fill="#00684E"/>
<path opacity="0.19" d="M136.444 427.71C134.841 428.639 133.47 429.873 132.425 431.33C131.379 432.787 130.681 434.434 130.379 436.16C130.208 438.011 130.519 439.874 131.286 441.592C132.053 443.309 133.255 444.833 134.79 446.034C137.901 448.424 141.816 449.74 145.863 449.755C150.68 449.859 155.749 448.283 158.747 444.786C162.108 440.865 162.212 434.935 159.284 430.718C154.111 423.293 143.818 423.189 136.444 427.71Z" fill="#00684E"/>
<path opacity="0.19" d="M141.392 486.684C140.594 487.15 139.912 487.768 139.392 488.497C138.872 489.225 138.526 490.048 138.377 490.909C138.288 491.834 138.439 492.764 138.819 493.623C139.199 494.482 139.796 495.244 140.56 495.847C142.116 497.042 144.073 497.701 146.097 497.711C147.305 497.778 148.514 497.589 149.631 497.159C150.748 496.729 151.744 496.07 152.543 495.23C153.351 494.22 153.809 493.007 153.857 491.752C153.905 490.497 153.541 489.257 152.812 488.197C150.204 484.444 145.049 484.444 141.392 486.684Z" fill="#00684E"/>
<path opacity="0.19" d="M438.484 422.402C437.686 422.867 437.004 423.483 436.484 424.211C435.964 424.938 435.618 425.759 435.469 426.619C435.379 427.545 435.531 428.476 435.911 429.337C436.291 430.197 436.888 430.961 437.652 431.565C439.208 432.76 441.165 433.419 443.189 433.429C444.397 433.494 445.606 433.304 446.723 432.873C447.84 432.441 448.836 431.781 449.635 430.94C450.443 429.93 450.901 428.717 450.949 427.462C450.997 426.207 450.632 424.967 449.904 423.907C447.322 420.194 442.166 420.138 438.484 422.402Z" fill="#00684E"/>
<path opacity="0.19" d="M478.436 451.012C470.283 458.037 462.398 466.623 461.774 476.906C461.566 480.299 462.268 483.884 464.573 486.508C467.675 490.045 473.003 491.198 477.933 491.198C486.938 491.218 495.612 488.071 502.194 482.395C505.423 479.544 507.983 476.11 509.717 472.307C511.45 468.503 512.319 464.412 512.27 460.286C512.166 455.949 510.901 451.484 507.938 448.139C499.811 438.905 486.104 444.434 478.436 451.012Z" fill="#00684E"/>
<path opacity="0.19" d="M-4.65516 367.214C-11.3094 363.662 -19.012 360.581 -26.472 362.261C-28.9812 362.717 -31.2207 364.01 -32.7624 365.894C-34.6685 368.487 -34.4259 371.968 -33.4382 374.96C-31.6504 380.453 -27.6584 385.107 -22.2785 387.972C-19.5967 389.366 -16.6332 390.237 -13.5718 390.53C-10.5104 390.824 -7.4165 390.533 -4.48188 389.676C-1.34632 388.824 1.39563 387.037 3.31605 384.595C8.26341 377.785 1.59185 370.543 -4.65516 367.214Z" fill="#00684E"/>
<path opacity="0.19" d="M389.271 467.303C384.349 464.678 378.648 462.397 373.129 463.646C371.27 463.978 369.61 464.933 368.468 466.326C367.055 468.247 367.237 470.816 367.965 473.04C369.298 477.095 372.254 480.528 376.231 482.642C378.214 483.673 380.406 484.317 382.67 484.534C384.933 484.752 387.221 484.538 389.392 483.907C391.712 483.275 393.741 481.953 395.163 480.146C398.819 475.129 393.889 469.767 389.271 467.303Z" fill="#00684E"/>
<path opacity="0.19" d="M254.366 475.057C249.003 476.778 243.405 479.274 240.823 483.948C239.878 485.465 239.57 487.251 239.957 488.965C240.615 491.205 242.842 492.758 245.156 493.694C249.351 495.419 254.101 495.602 258.438 494.206C260.58 493.492 262.541 492.38 264.198 490.937C265.856 489.494 267.174 487.753 268.073 485.82C269.071 483.786 269.314 481.505 268.766 479.33C267.024 473.481 259.408 473.433 254.366 475.057Z" fill="#00684E"/>
</g>
<g opacity="0.36">
<path opacity="0.36" d="M83.5739 269.989C94.7076 280.48 97.7921 295.02 97.7921 307.927C93.2 295.34 85.4367 284.761 72.1283 280.376C54.1584 274.447 34.5942 283.345 18.9637 293.443C17.4648 278.151 26.9349 264.036 31.9603 249.432C36.9856 234.829 35.0101 214.968 19.5962 209.198C6.59967 204.357 -7.38462 212.447 -18.605 220.145C-11.633 189.359 -6.24381 158.348 -2.43726 127.114C-1.6748 120.824 -0.990322 114.311 -3.19107 108.293C-5.39182 102.276 -11.3096 96.9866 -18.1631 97.2186C-22.0274 97.3546 -25.5625 99.1631 -28.8896 100.98C-38.8016 106.378 -48.4075 112.228 -57.7073 118.528C-55.7318 95.5062 -36.4102 75.3172 -37.7792 52.2715C-38.767 34.8032 -53.2105 18.7272 -71.6136 14.5741C-74.8257 13.8599 -78.1177 13.4973 -81.4216 13.4939C-68.2085 1.57091 -52.344 -5.63886 -37.2853 5.63593C-2.55857 31.6504 -36.5662 95.3862 -37.2853 96.7065C-36.5056 95.7383 -8.36369 60.5375 15.9832 86.8561C40.5293 113.375 -3.20839 201.508 -3.73692 202.589C-3.17373 202.077 24.1363 177.399 43.9951 203.541C63.6025 229.339 35.5473 277.847 34.2303 280.104C35.5733 278.304 59.2444 247.04 83.5739 269.989Z" fill="#C5DB96"/>
<path opacity="0.36" d="M556.701 69.9402C558.867 93.314 570.651 114.839 581.291 136.149C586.359 146.319 583.682 159.514 578.839 170.381C565.214 154.838 548.024 142.282 528.507 133.62C520.848 130.235 511.179 127.627 504.334 132.252C497.905 136.581 497.203 145.103 497.74 152.433C500.35 186.039 516.283 217.577 542.492 241.015C530.275 242.743 518.465 237.07 506.968 232.829C495.47 228.588 481.442 225.931 471.522 232.749C460.362 240.407 460.405 256.074 465.136 268.149C469.642 279.656 477.379 290.203 479.814 302.174C479.929 302.745 480.033 303.321 480.125 303.902C460.128 289.315 433.84 273.967 411.062 284.537C389.306 294.636 385.935 321.531 385.433 344.024C385.181 354.979 383.448 365.101 383.197 376.032L346.807 347.081C340.82 342.32 334.339 337.359 326.498 336.502C316.906 335.462 307.618 341.095 302.177 348.465C296.735 355.835 294.379 364.717 292.126 373.391C283.687 359.892 274.797 346.073 261.376 336.646C247.955 327.22 228.651 323.147 213.991 330.885C199.331 338.623 193.508 355.195 188.942 370.255L162.082 336.854C155.498 328.676 147.5 319.746 136.488 319.074C121.464 318.21 110.763 328.836 104.135 341.335C103.677 334.627 102.809 327.948 101.536 321.331C109.88 308.839 124.479 294.332 145.984 298.061C182.348 304.398 185.927 354.811 185.927 354.811C185.927 354.811 192.053 301.294 236.579 304.878C281.105 308.463 287.508 364.413 287.508 364.413C287.508 364.413 286.815 300.661 326.09 302.326C363.113 303.926 376.396 351.634 377.808 357.107C376.491 351.202 365.201 295.492 402.666 274.167C432.61 257.091 461.462 281.945 473.757 295.076C461.107 279.376 435.114 242.055 455.259 221.562C480.853 195.555 525.353 230.1 526.705 231.164C525.102 229.524 460.856 163.483 494.248 125.538C527.641 87.5926 579.809 151.272 581.291 153.105C579.844 150.648 515.623 41.2291 567.02 15.1186C576.161 10.4695 584.505 8.50901 592.043 8.42099C590.495 8.93418 588.976 9.5218 587.494 10.1814C564.62 20.384 554.535 46.5424 556.701 69.9402Z" fill="#C5DB96"/>
</g>
<path d="M482.81 406.129L482.767 406.025C483.287 406.153 483.816 406.273 484.345 406.385L482.81 406.129Z" fill="#C5DB96"/>
<path d="M495.159 408.05C491.505 407.738 487.882 407.172 484.32 406.36L495.159 408.05Z" fill="#C5DB96"/>
<path opacity="0.32" d="M645 209.856V224.379L622.845 210.656C611.408 203.574 598.047 196.156 584.722 199.413C563.381 204.63 560.089 232.293 568.346 251.194C576.603 270.095 591.939 287.227 592.459 307.6C574.281 295.667 554.94 285.324 534.685 276.704C528.291 273.984 521.021 271.399 514.402 273.616C506.188 276.376 502.531 285.795 504.056 293.741C505.581 301.687 510.988 308.472 516.186 314.938L548.99 355.516C528.376 347.717 506.187 344.109 483.929 344.937C479.398 345.113 474.329 345.737 471.53 349.026C468.299 352.835 469.615 358.333 471.236 362.934C475.195 374.208 474.987 384.747 478.037 395.126C478.052 395.207 478.075 395.288 478.107 395.366C479.18 399.082 480.745 402.662 482.768 406.024C472.752 403.624 463.031 399.895 453.049 397.27C438.996 393.581 422.811 392.469 410.758 400.079C392.953 411.362 392.685 435.112 394.296 454.996C389.098 448.931 383.847 442.785 377.834 437.392C373.939 433.836 369.61 430.71 364.933 428.078C353.01 421.524 337.207 419.428 325.449 426.245C310.425 434.968 307.626 453.756 306.344 470.104C296.536 454.74 286.286 438.896 270.63 428.494C254.973 418.091 232.316 414.386 216.521 424.645C203.94 432.807 197.754 439.953 184.644 447.363C185.588 448.829 186.079 450.505 186.063 452.211C186.048 453.916 185.527 455.585 184.558 457.037C179.359 440.633 172.341 422.284 155.402 415.427C140.803 409.497 123.153 414.626 111.058 424.229C98.9625 433.831 91.2426 447.179 83.7912 460.238C85.3414 441.569 84.6148 422.799 81.6251 404.28C80.8453 399.479 79.8316 394.469 76.7124 390.533C70.8813 383.171 59.1064 381.73 49.7836 384.755C40.4607 387.78 33.0093 394.229 25.8612 400.519C33.7667 386.007 37.9021 369.993 37.9394 353.747C37.9394 347.634 37.2375 341.184 33.4339 336.143C28.0187 329.029 17.4221 326.621 8.12528 328.029C-1.17158 329.437 -9.51538 333.967 -17.6079 338.432C-4.02234 315.371 3.82449 289.803 5.36135 263.589C5.69926 257.708 5.53463 251.282 1.54902 246.681C-5.02724 239.103 -18.2404 240.639 -27.312 245.545C-36.3836 250.45 -43.9216 257.94 -53.8769 261.06C-47.1646 245.075 -42.8784 228.31 -41.1403 211.24C-40.3605 203.518 -40.8804 194.268 -47.9505 190.091C-55.0206 185.914 -64.4475 189.411 -71.7515 193.324C-86.022 200.949 -99.4495 209.847 -111.842 219.89V213.361C-111.842 213.361 -72.3407 158.635 -37.25 178.032C-2.43659 197.237 -36.6955 244.448 -37.25 245.249C-36.6089 244.648 -8.38034 218.506 16.0185 237.967C40.5473 257.524 -3.12974 322.492 -3.70159 323.348C-3.1384 322.972 24.1717 304.759 44.0304 324.052C63.7245 343.169 35.366 379.186 34.2483 380.554C35.3401 379.458 59.1411 356.052 83.6352 373.056C107.566 389.692 94.3184 420.14 93.1054 422.804C94.509 420.1 111.223 389.332 146.019 393.781C182.409 398.438 185.987 435.632 185.987 435.632C185.987 435.632 192.113 396.15 236.639 398.823C281.165 401.495 287.568 442.745 287.568 442.745C287.568 442.745 286.875 395.71 326.151 396.942C362.974 398.094 376.318 432.951 377.843 437.288C376.439 432.567 365.461 391.845 402.727 376.169C432.671 363.574 461.514 381.898 473.774 391.589C461.107 379.97 435.114 352.411 455.259 337.327C480.853 318.123 525.353 343.625 526.705 344.401C525.102 343.193 460.856 294.469 494.248 266.486C527.641 238.503 580.026 285.691 581.291 286.827C580 285.226 515.563 204.31 567.02 185.026C619.006 165.541 645 209.856 645 209.856Z" fill="#C5DB96"/>
<g opacity="0.36">
<g opacity="0.51">
<path opacity="0.51" d="M14.9263 225.189C17.0605 225.189 18.7906 223.591 18.7906 221.62C18.7906 219.649 17.0605 218.051 14.9263 218.051C12.7921 218.051 11.062 219.649 11.062 221.62C11.062 223.591 12.7921 225.189 14.9263 225.189Z" fill="#00684E"/>
<path opacity="0.51" d="M49.6423 308.99C53.1648 307.112 53.2991 301.236 49.9423 295.866C46.5855 290.497 41.0087 287.666 37.4862 289.545C33.9637 291.423 33.8294 297.298 37.1862 302.668C40.543 308.038 46.1198 310.868 49.6423 308.99Z" fill="#00684E"/>
<path opacity="0.51" d="M88.0699 319.693C92.4759 316.685 92.6007 309.94 88.3484 304.626C84.0961 299.313 77.0771 297.444 72.671 300.452C68.2649 303.46 68.1403 310.205 72.3925 315.519C76.6448 320.832 83.6638 322.701 88.0699 319.693Z" fill="#00684E"/>
<path opacity="0.51" d="M69.4857 354.789C73.1655 354.789 76.1486 352.034 76.1486 348.636C76.1486 345.237 73.1655 342.482 69.4857 342.482C65.8058 342.482 62.8228 345.237 62.8228 348.636C62.8228 352.034 65.8058 354.789 69.4857 354.789Z" fill="#00684E"/>
<path opacity="0.51" d="M137.259 369.008C145.097 369.008 151.451 363.14 151.451 355.901C151.451 348.662 145.097 342.794 137.259 342.794C129.42 342.794 123.066 348.662 123.066 355.901C123.066 363.14 129.42 369.008 137.259 369.008Z" fill="#00684E"/>
<path opacity="0.51" d="M254.609 361.966C258.595 361.966 261.826 358.981 261.826 355.3C261.826 351.619 258.595 348.634 254.609 348.634C250.623 348.634 247.392 351.619 247.392 355.3C247.392 358.981 250.623 361.966 254.609 361.966Z" fill="#00684E"/>
<path opacity="0.51" d="M412.465 336.785C417.437 336.785 421.468 330.795 421.468 323.405C421.468 316.016 417.437 310.026 412.465 310.026C407.493 310.026 403.463 316.016 403.463 323.405C403.463 330.795 407.493 336.785 412.465 336.785Z" fill="#00684E"/>
<path opacity="0.51" d="M443.188 307.913C449.854 307.913 455.258 305.075 455.258 301.575C455.258 298.075 449.854 295.237 443.188 295.237C436.522 295.237 431.119 298.075 431.119 301.575C431.119 305.075 436.522 307.913 443.188 307.913Z" fill="#00684E"/>
<path opacity="0.51" d="M484.804 250.387C489.599 250.387 493.486 248.482 493.486 246.13C493.486 243.779 489.599 241.873 484.804 241.873C480.009 241.873 476.122 243.779 476.122 246.13C476.122 248.482 480.009 250.387 484.804 250.387Z" fill="#00684E"/>
</g>
</g>
<path d="M644.999 553.388H-111.461V662.999H644.999V553.388Z" fill="#009B89"/>
<path d="M642.132 487.644V662.999H-111.876V460.765C-104.632 460.197 -97.2156 461.885 -89.7556 466.606C-75.4161 475.681 -67.6875 491.108 -60.7386 505.816C-41.1572 498.91 -16.4897 512.314 -13.5265 531.478C0.223861 517.363 28.8596 520.172 39.0922 536.64C48.0338 528.334 59.3495 519.323 71.7396 521.836C77.64 523.028 82.5787 526.733 88.2972 528.534C94.0157 530.334 101.857 529.182 103.763 523.893L121.577 538.448C130.319 525.885 153.999 526.445 162.005 539.44C174.135 526.885 198.101 526.445 210.794 538.552C221.997 525.749 247.774 528.806 255.112 543.801C266.896 534.999 284.961 534.359 297.455 542.249L344.13 534.727C356.581 532.727 371.657 531.566 379.593 540.649C381.326 529.134 398.074 521.732 421.182 529.294C433.044 533.167 430.349 538.264 438.84 546.842C442.375 537.688 463.499 525.237 473.42 521.972C501.718 512.714 505.079 533.375 523.56 527.717C536.644 505.792 569.88 496.59 593.863 508.241C592.321 496.35 606.123 487.091 618.99 485.979C626.779 485.323 634.447 486.499 642.132 487.644Z" fill="#009B89"/>
<path opacity="0.17" d="M252.365 623.653C340.274 623.653 411.538 612.665 411.538 599.111C411.538 585.557 340.274 574.569 252.365 574.569C164.456 574.569 93.1919 585.557 93.1919 599.111C93.1919 612.665 164.456 623.653 252.365 623.653Z" fill="#1E1D3F"/>
<path opacity="0.17" d="M43.4321 636.185C84.0967 636.185 117.062 625.197 117.062 611.643C117.062 598.089 84.0967 587.101 43.4321 587.101C2.76744 587.101 -30.1978 598.089 -30.1978 611.643C-30.1978 625.197 2.76744 636.185 43.4321 636.185Z" fill="#1E1D3F"/>
</svg>
